<svg data-name="Layer 1" xmlns="http://www.w3.org/2000/svg" viewBox="0 0 53.15 30.48"><g data-name="prefix Group 1" fill="#fff"><path data-name="prefix Path 1" d="M42.64 24.33H53v6H32.16v-3.55L42.1 15.2l2.08-2.42a9.33 9.33 0 001.12-1.71 4.1 4.1 0 00.55-1.87A2.76 2.76 0 0045 7.12a4.22 4.22 0 00-5.25.14A4.44 4.44 0 0038.59 10h-7a9.79 9.79 0 013.1-7.32A11.51 11.51 0 0142.7 0c3.3 0 5.86.88 7.69 2.6a8.68 8.68 0 012.76 6.64 7.81 7.81 0 01-1.2 4 35.7 35.7 0 01-4 5.13z"/><path data-name="prefix Path 2" d="M4.78 20.64l7 9.84H0v-4.35z" style="isolation:isolate" opacity=".8"/><path data-name="prefix Path 3" d="M12.79.47L0 15.19V.47z" style="isolation:isolate" opacity=".8"/><path data-name="prefix Path 4" d="M28.32.47v30h-6.51L10.08 14.53 22.3.47z"/></g></svg>